<svg xmlns="http://www.w3.org/2000/svg" width="288" height="144"><text x="144" y="40" font-family="Palatino, &quot;URW Palladio R&quot;, serif" font-size="40" text-anchor="middle">Skip list</text><path fill="#ccc" stroke="#fff" d="M 20 130 L 40 130 L 40 110 L 20 110 Z"/><path fill="#ccc" stroke="#fff" d="M 20 110 L 40 110 L 40 90 L 20 90 Z"/><path fill="#ccc" stroke="#fff" d="M 20 90 L 40 90 L 40 70 L 20 70 Z"/><path fill="#ccc" stroke="#fff" d="M 20 70 L 40 70 L 40 50 L 20 50 Z"/><text x="30" y="127" font-family="Palatino, &quot;URW Palladio R&quot;, serif" font-size="12" text-anchor="middle">3</text><path fill="#ccc" stroke="#fff" d="M 45 130 L 65 130 L 65 110 L 45 110 Z"/><path fill="#ccc" stroke="#fff" d="M 45 110 L 65 110 L 65 90 L 45 90 Z"/><path fill="none" stroke="#000" d="M 30 100.0 L 45 100.0 m -3.5 -2.0 l 3.5 2.0 l -3.5 2.0"/><text x="55" y="127" font-family="Palatino, &quot;URW Palladio R&quot;, serif" font-size="12" text-anchor="middle">5</text><path fill="#ccc" stroke="#fff" d="M 70 130 L 90 130 L 90 110 L 70 110 Z"/><path fill="#ccc" stroke="#fff" d="M 70 110 L 90 110 L 90 90 L 70 90 Z"/><path fill="none" stroke="#000" d="M 55 100.0 L 70 100.0 m -3.5 -2.0 l 3.5 2.0 l -3.5 2.0"/><path fill="#ccc" stroke="#fff" d="M 70 90 L 90 90 L 90 70 L 70 70 Z"/><path fill="none" stroke="#000" d="M 30 80.0 L 70 80.0 m -3.5 -2.0 l 3.5 2.0 l -3.5 2.0"/><text x="80" y="127" font-family="Palatino, &quot;URW Palladio R&quot;, serif" font-size="12" text-anchor="middle">6</text><path fill="#ccc" stroke="#fff" d="M 95 130 L 115 130 L 115 110 L 95 110 Z"/><path fill="#ccc" stroke="#fff" d="M 95 110 L 115 110 L 115 90 L 95 90 Z"/><path fill="none" stroke="#000" d="M 80 100.0 L 95 100.0 m -3.5 -2.0 l 3.5 2.0 l -3.5 2.0"/><text x="105" y="127" font-family="Palatino, &quot;URW Palladio R&quot;, serif" font-size="12" text-anchor="middle">10</text><path fill="#ccc" stroke="#fff" d="M 120 130 L 140 130 L 140 110 L 120 110 Z"/><path fill="#ccc" stroke="#fff" d="M 120 110 L 140 110 L 140 90 L 120 90 Z"/><path fill="none" stroke="#000" d="M 105 100.0 L 120 100.0 m -3.5 -2.0 l 3.5 2.0 l -3.5 2.0"/><text x="130" y="127" font-family="Palatino, &quot;URW Palladio R&quot;, serif" font-size="12" text-anchor="middle">11</text><path fill="#ccc" stroke="#fff" d="M 145 130 L 165 130 L 165 110 L 145 110 Z"/><path fill="#ccc" stroke="#fff" d="M 145 110 L 165 110 L 165 90 L 145 90 Z"/><path fill="none" stroke="#000" d="M 130 100.0 L 145 100.0 m -3.5 -2.0 l 3.5 2.0 l -3.5 2.0"/><path fill="#ccc" stroke="#fff" d="M 145 90 L 165 90 L 165 70 L 145 70 Z"/><path fill="none" stroke="#000" d="M 80 80.0 L 145 80.0 m -3.5 -2.0 l 3.5 2.0 l -3.5 2.0"/><text x="155" y="127" font-family="Palatino, &quot;URW Palladio R&quot;, serif" font-size="12" text-anchor="middle">15</text><path fill="#ccc" stroke="#fff" d="M 170 130 L 190 130 L 190 110 L 170 110 Z"/><path fill="#ccc" stroke="#fff" d="M 170 110 L 190 110 L 190 90 L 170 90 Z"/><path fill="none" stroke="#000" d="M 155 100.0 L 170 100.0 m -3.5 -2.0 l 3.5 2.0 l -3.5 2.0"/><path fill="#ccc" stroke="#fff" d="M 170 90 L 190 90 L 190 70 L 170 70 Z"/><path fill="none" stroke="#000" d="M 155 80.0 L 170 80.0 m -3.5 -2.0 l 3.5 2.0 l -3.5 2.0"/><path fill="#ccc" stroke="#fff" d="M 170 70 L 190 70 L 190 50 L 170 50 Z"/><path fill="none" stroke="#000" d="M 30 60.0 L 170 60.0 m -3.5 -2.0 l 3.5 2.0 l -3.5 2.0"/><text x="180" y="127" font-family="Palatino, &quot;URW Palladio R&quot;, serif" font-size="12" text-anchor="middle">16</text><path fill="#ccc" stroke="#fff" d="M 195 130 L 215 130 L 215 110 L 195 110 Z"/><path fill="#ccc" stroke="#fff" d="M 195 110 L 215 110 L 215 90 L 195 90 Z"/><path fill="none" stroke="#000" d="M 180 100.0 L 195 100.0 m -3.5 -2.0 l 3.5 2.0 l -3.5 2.0"/><text x="205" y="127" font-family="Palatino, &quot;URW Palladio R&quot;, serif" font-size="12" text-anchor="middle">22</text><path fill="#ccc" stroke="#fff" d="M 220 130 L 240 130 L 240 110 L 220 110 Z"/><path fill="#ccc" stroke="#fff" d="M 220 110 L 240 110 L 240 90 L 220 90 Z"/><path fill="none" stroke="#000" d="M 205 100.0 L 220 100.0 m -3.5 -2.0 l 3.5 2.0 l -3.5 2.0"/><path fill="#ccc" stroke="#fff" d="M 220 90 L 240 90 L 240 70 L 220 70 Z"/><path fill="none" stroke="#000" d="M 180 80.0 L 220 80.0 m -3.5 -2.0 l 3.5 2.0 l -3.5 2.0"/><text x="230" y="127" font-family="Palatino, &quot;URW Palladio R&quot;, serif" font-size="12" text-anchor="middle">25</text><path fill="#ccc" stroke="#fff" d="M 245 130 L 265 130 L 265 110 L 245 110 Z"/><path fill="#ccc" stroke="#fff" d="M 245 110 L 265 110 L 265 90 L 245 90 Z"/><path fill="none" stroke="#000" d="M 230 100.0 L 245 100.0 m -3.5 -2.0 l 3.5 2.0 l -3.5 2.0"/><text x="255" y="127" font-family="Palatino, &quot;URW Palladio R&quot;, serif" font-size="12" text-anchor="middle">25</text></svg>