<svg xmlns="http://www.w3.org/2000/svg" width="288" height="144"><text x="144" y="40" font-family="Palatino, &quot;URW Palladio R&quot;, serif" font-size="40" text-anchor="middle">Skip ﬁles</text><path fill="#ccc" stroke="#fff" d="M 137 50 L 157 50 L 157 70 L 137 70 Z"/><text x="147" y="63" font-family="Palatino, &quot;URW Palladio R&quot;, serif" font-size="12" text-anchor="middle">3</text><path fill="#ccc" stroke="#fff" d="M 98 86 L 118 86 L 118 106 L 98 106 Z"/><path fill="none" stroke="#000" d="M 147 66 L 108 86 m 4.02699441504 0.182526659039 l -4.02699441504 -0.182526659039 l 2.20172782465 -3.37674319221"/><text x="108" y="99" font-family="Palatino, &quot;URW Palladio R&quot;, serif" font-size="12" text-anchor="middle">3</text><path fill="#ccc" stroke="#fff" d="M 59 122 L 79 122 L 79 142 L 59 142 Z"/><path fill="none" stroke="#000" d="M 108 102 L 69 122 m 4.02699441504 0.182526659039 l -4.02699441504 -0.182526659039 l 2.20172782465 -3.37674319221"/><text x="69" y="135" font-family="Palatino, &quot;URW Palladio R&quot;, serif" font-size="12" text-anchor="middle">3</text><path fill="#ccc" stroke="#fff" d="M 79 122 L 99 122 L 99 142 L 79 142 Z"/><text x="89" y="135" font-family="Palatino, &quot;URW Palladio R&quot;, serif" font-size="12" text-anchor="middle">5</text><path fill="#ccc" stroke="#fff" d="M 118 86 L 138 86 L 138 106 L 118 106 Z"/><text x="128" y="99" font-family="Palatino, &quot;URW Palladio R&quot;, serif" font-size="12" text-anchor="middle">6</text><path fill="#ccc" stroke="#fff" d="M 99 122 L 119 122 L 119 142 L 99 142 Z"/><path fill="none" stroke="#000" d="M 128 102 L 109 122 m 3.86062198389 -1.15999909375 l -3.86062198389 1.15999909375 l 0.960624249513 -3.91499694141"/><text x="109" y="135" font-family="Palatino, &quot;URW Palladio R&quot;, serif" font-size="12" text-anchor="middle">6</text><path fill="#ccc" stroke="#fff" d="M 119 122 L 139 122 L 139 142 L 119 142 Z"/><text x="129" y="135" font-family="Palatino, &quot;URW Palladio R&quot;, serif" font-size="12" text-anchor="middle">10</text><path fill="#ccc" stroke="#fff" d="M 139 122 L 159 122 L 159 142 L 139 142 Z"/><text x="149" y="135" font-family="Palatino, &quot;URW Palladio R&quot;, serif" font-size="12" text-anchor="middle">11</text><path fill="#ccc" stroke="#fff" d="M 138 86 L 158 86 L 158 106 L 138 106 Z"/><text x="148" y="99" font-family="Palatino, &quot;URW Palladio R&quot;, serif" font-size="12" text-anchor="middle">15</text><path fill="#ccc" stroke="#fff" d="M 159 122 L 179 122 L 179 142 L 159 142 Z"/><path fill="none" stroke="#000" d="M 148 102 L 169 122 m -1.15517241379 -3.86206896552 l 1.15517241379 3.86206896552 l -3.91379310345 -0.965517241379"/><text x="169" y="135" font-family="Palatino, &quot;URW Palladio R&quot;, serif" font-size="12" text-anchor="middle">15</text><path fill="#ccc" stroke="#fff" d="M 157 50 L 177 50 L 177 70 L 157 70 Z"/><text x="167" y="63" font-family="Palatino, &quot;URW Palladio R&quot;, serif" font-size="12" text-anchor="middle">16</text><path fill="#ccc" stroke="#fff" d="M 158 86 L 178 86 L 178 106 L 158 106 Z"/><path fill="none" stroke="#000" d="M 167 66 L 168 86 m 1.82272301845 -3.59550841996 l -1.82272301845 3.59550841996 l -2.17228633706 -3.39575795218"/><text x="168" y="99" font-family="Palatino, &quot;URW Palladio R&quot;, serif" font-size="12" text-anchor="middle">16</text><path fill="#ccc" stroke="#fff" d="M 179 122 L 199 122 L 199 142 L 179 142 Z"/><path fill="none" stroke="#000" d="M 168 102 L 189 122 m -1.15517241379 -3.86206896552 l 1.15517241379 3.86206896552 l -3.91379310345 -0.965517241379"/><text x="189" y="135" font-family="Palatino, &quot;URW Palladio R&quot;, serif" font-size="12" text-anchor="middle">16</text><path fill="#ccc" stroke="#fff" d="M 199 122 L 219 122 L 219 142 L 199 142 Z"/><text x="209" y="135" font-family="Palatino, &quot;URW Palladio R&quot;, serif" font-size="12" text-anchor="middle">22</text><path fill="#ccc" stroke="#fff" d="M 178 86 L 198 86 L 198 106 L 178 106 Z"/><text x="188" y="99" font-family="Palatino, &quot;URW Palladio R&quot;, serif" font-size="12" text-anchor="middle">25</text><path fill="#ccc" stroke="#fff" d="M 219 122 L 239 122 L 239 142 L 219 142 Z"/><path fill="none" stroke="#000" d="M 188 102 L 229 122 m -2.26884229571 -3.33201960336 l 2.26884229571 3.33201960336 l -4.0225368238 0.263054179213"/><text x="229" y="135" font-family="Palatino, &quot;URW Palladio R&quot;, serif" font-size="12" text-anchor="middle">25</text><path fill="#ccc" stroke="#fff" d="M 239 122 L 259 122 L 259 142 L 239 142 Z"/><text x="249" y="135" font-family="Palatino, &quot;URW Palladio R&quot;, serif" font-size="12" text-anchor="middle">25</text></svg>